# Blender 4.4.3
# www.blender.org
o Plane.001
v -209.650665 0.000011 258.633636
v -177.775116 0.000011 258.633636
v -208.591446 0.000011 232.580978
v -176.715897 0.000011 232.580978
v -207.332916 0.000013 206.561584
v -175.457367 0.000013 206.561584
v -205.949295 0.000015 180.128250
v -174.073746 0.000015 180.128250
v -204.293213 0.000017 153.496613
v -172.417679 0.000017 153.496613
v -203.207458 0.781237 127.148315
v -171.331940 0.781237 127.148315
v -202.409515 4.154610 103.052696
v -170.541534 4.154610 102.769119
v -203.376785 6.511330 90.000801
v -171.753693 6.511330 87.346359
v -208.456375 9.914757 76.024750
v -177.495270 9.914758 69.219666
v -216.630295 14.499247 50.767826
v -185.052017 14.499249 47.622509
v -216.963318 18.571751 29.978874
v -185.327881 18.571751 31.586308
v -211.524811 21.551399 9.598748
v -181.231308 21.551399 18.389332
v -198.551529 23.825926 -11.941769
v -170.221481 23.825926 2.372277
v -187.464432 26.468044 -29.745798
v -158.869537 26.468044 -15.794827
v -178.109283 27.959349 -41.760681
v -150.946564 27.959349 -25.241329
v -164.902161 28.612419 -54.123226
v -139.419800 28.612421 -35.018711
v -145.352875 28.630539 -75.769066
v -120.204521 28.630539 -56.183102
v -123.264938 28.791929 -102.831520
v -98.116592 28.791929 -83.245560
v -95.064339 28.841776 -130.187576
v -73.990753 28.841776 -108.554626
v -53.675987 28.841776 -150.198990
v -48.901424 28.841776 -120.378128
v -14.604072 28.841776 -163.582535
v -13.904259 28.841776 -131.714691
v 23.617733 28.841776 -174.470062
v 24.317545 28.841778 -142.602203
v 52.926376 28.841776 -180.479752
v 53.626186 28.841778 -148.611908
v 79.252174 28.841776 -186.241760
v 79.951981 28.841778 -154.373901
v 105.930931 28.841778 -192.517181
v 106.630753 28.841778 -160.649323
v 132.243912 28.841778 -198.590408
v 132.943710 28.841778 -166.722565
v 158.966309 28.841778 -203.807602
v 159.666107 28.841780 -171.939728
v 184.998825 28.841778 -209.121017
v 185.698654 28.841780 -177.253159
v 210.732941 28.841778 -214.110382
v 211.432785 28.841780 -182.242508
v 237.769165 28.841778 -219.278107
v 238.469009 28.841780 -187.410263
v 264.566650 28.841780 -224.186600
v 265.266479 28.841780 -192.318741
v 290.916779 28.471256 -226.458237
v 290.102173 28.471256 -194.776306
v 319.923340 26.585403 -222.005844
v 311.793579 26.585403 -191.591461
v 343.983795 24.055326 -210.863968
v 328.629517 24.055326 -183.197861
v 362.437378 21.136549 -192.697159
v 341.436707 21.136549 -169.768066
v 377.966949 18.778492 -166.569092
v 349.311737 18.778492 -155.464111
v 381.530396 16.448212 -140.948898
v 350.567810 16.448212 -142.328339
v 374.910461 15.336205 -117.512657
v 345.988922 15.336205 -129.864288
v 363.387238 14.277330 -98.880859
v 335.052734 14.277329 -113.482567
v 347.769897 11.477637 -80.642639
v 320.321564 11.477634 -96.485931
v 322.816040 6.326661 -58.204948
v 299.207306 6.326659 -79.299385
v 299.438141 2.303493 -39.028175
v 277.824097 2.303491 -62.439278
v 279.839905 0.564216 -23.969849
v 258.235870 0.564215 -47.406429
v 261.065094 2.583921 -10.024411
v 239.699478 2.583920 -33.659534
v 234.882874 8.510946 3.815542
v 221.669556 8.510946 -13.037029
v -209.637665 0.000009 286.253052
v -177.762131 0.000009 286.253052
v -208.986053 0.000006 313.430908
v -177.123260 0.000006 313.063202
v -205.873444 0.000004 340.475189
v -174.729050 0.000004 336.403625
v -193.723312 -0.124602 365.910431
v -167.162933 -0.124603 350.582550
v -168.612137 -0.747627 386.337097
v -152.582336 -0.747628 360.216797
v -136.882645 -1.806768 390.948395
v -134.234207 -1.806769 360.296051
v -108.691978 -4.236560 383.704010
v -120.315422 -4.236561 355.411835
v -87.976608 -7.227073 361.871185
v -111.715424 -7.227074 342.156250
v -77.744720 -8.909237 335.517578
v -107.156769 -8.909237 323.939606
v -72.985687 -8.490423 315.888855
v -102.016479 -8.490425 303.876373
v -65.590012 -7.232260 305.190521
v -88.329437 -7.232262 283.982849
v -50.479164 -6.263112 298.994263
v -68.292709 -6.263113 273.037262
v -30.015518 -6.380793 288.208862
v -52.493202 -6.380794 266.011261
v -14.711756 -6.439632 272.889557
v -39.638992 -6.439633 253.460785
v -2.956319 -6.604040 248.348602
v -32.083885 -6.604040 237.194305
v 1.578353 -6.043316 218.829102
v -29.939650 -6.043316 216.969879
v 0.925927 -4.492677 192.987000
v -30.761736 -4.492677 194.443497
v -2.559212 -4.077326 168.981186
v -33.495808 -4.077326 175.992340
v -6.724360 -3.682742 149.759888
v -37.600277 -3.682742 155.958954
v -6.821196 -2.616677 136.486664
v -37.867825 -2.616677 132.665405
v -3.781383 -0.498394 123.995041
v -32.727196 -0.498395 111.667511
v 3.211662 0.000026 115.821777
v -19.340267 0.000025 94.889832
v 14.490792 0.000027 111.369034
v 5.681288 0.000026 82.340286
v 31.790493 0.000027 110.281876
v 36.241341 0.000026 79.292610
v 53.670444 -0.051892 111.151337
v 58.910480 -0.051893 79.995239
v 78.148819 -0.415322 109.685394
v 74.427948 -0.415324 78.565140
v 100.521095 -1.246020 100.546600
v 89.295372 -1.246022 70.891579
v 123.401436 -1.869043 84.992409
v 110.771820 -1.869044 55.725731
v 147.862274 -1.152767 68.904465
v 134.065811 -1.152768 40.330006
v 173.420090 0.253609 51.993870
v 154.956223 0.253608 26.188282
v 190.938049 1.853761 32.518631
v 177.748657 1.853760 15.645587
v 170.746628 1.536574 14.424134
v 190.377335 1.536575 39.537502
v 243.049683 7.127013 4.022489
v 222.972137 7.127012 -20.710026
v -209.212738 0.000011 245.462997
v -193.712891 0.000011 258.633636
v -177.337219 0.000011 245.462997
v -192.653656 0.000011 232.580948
v -191.395142 0.000013 206.561584
v -207.958466 0.000011 219.630890
v -176.082947 0.000011 219.630890
v -190.011505 0.000015 180.128250
v -206.685852 0.000014 193.393539
v -174.810333 0.000014 193.393524
v -188.355453 0.000017 153.496643
v -205.094971 0.000016 166.787979
v -173.219452 0.000016 166.787964
v -187.269684 0.781237 127.148308
v -203.698975 0.097671 140.339828
v -171.823441 0.097671 140.339844
v -186.475510 4.154610 102.910896
v -202.718491 2.374735 114.104500
v -170.843903 2.374735 114.069054
v -187.565216 6.511329 88.673569
v -202.534607 5.407868 95.507225
v -170.708618 5.407867 94.501930
v -192.975815 9.914757 72.622200
v -205.236649 7.995369 84.291977
v -174.023773 7.995369 79.051170
v -200.841171 14.499246 49.195168
v -212.919159 12.167388 63.875839
v -181.736145 12.167388 58.219669
v -201.145599 18.571751 30.782589
v -217.753357 16.660728 39.730747
v -185.990280 16.660727 38.857986
v -196.378067 21.551399 13.994039
v -215.146729 20.202095 20.050869
v -183.985748 20.202095 25.024837
v -184.386520 23.825926 -4.784746
v -205.460907 22.675606 -1.295306
v -176.333588 22.675604 10.971966
v -173.166977 26.468046 -22.770311
v -192.532669 25.185272 -21.576696
v -164.131378 25.185272 -7.249144
v -164.527924 27.959349 -33.501007
v -182.908554 27.367323 -36.269905
v -154.799774 27.367323 -21.421717
v -152.160980 28.612421 -44.570969
v -172.289246 28.378998 -47.182930
v -146.095825 28.379000 -29.123745
v -132.778687 28.630537 -65.976074
v -155.694519 28.647856 -63.853954
v -130.504395 28.647858 -44.328171
v -110.690742 28.791931 -93.038544
v -134.587662 28.696991 -88.915596
v -109.439323 28.696991 -69.329643
v -84.527550 28.841772 -119.371094
v -110.726799 28.835541 -116.999161
v -86.087807 28.835541 -97.157333
v -51.288700 28.841774 -135.288559
v -75.080406 28.841774 -141.263641
v -62.156326 28.841776 -115.536736
v -14.254164 28.841774 -147.648605
v -33.813660 28.841776 -157.359406
v -32.604504 28.841776 -125.747437
v 23.967638 28.841776 -158.536133
v 5.099048 28.841776 -169.502792
v 5.798861 28.841778 -137.634933
v 53.276276 28.841776 -164.545822
v 39.238045 28.841776 -177.865494
v 39.937859 28.841778 -145.997620
v 79.602066 28.841776 -170.307831
v 66.094086 28.841776 -183.244049
v 66.793900 28.841778 -151.376190
v 106.280830 28.841776 -176.583221
v 92.592522 28.841778 -189.356125
v 93.292328 28.841778 -157.488251
v 132.593811 28.841776 -182.656494
v 119.083565 28.841778 -195.647156
v 119.783379 28.841778 -163.779297
v 159.316208 28.841776 -187.873627
v 145.603180 28.841778 -201.245667
v 146.302994 28.841778 -169.377838
v 185.348724 28.841780 -193.187088
v 172.099289 28.841778 -206.469101
v 172.799103 28.841780 -174.601257
v 211.082870 28.841780 -198.176453
v 197.771545 28.841778 -211.635193
v 198.471390 28.841780 -179.767334
v 238.119110 28.841780 -203.344208
v 224.135315 28.841778 -216.666092
v 224.835144 28.841780 -184.798233
v 264.916565 28.841780 -208.252686
v 251.326508 28.841778 -221.855820
v 252.026321 28.841780 -189.987961
v 290.509491 28.471252 -210.617264
v 277.480377 28.795464 -225.942795
v 277.990906 28.795464 -194.098175
v 315.858429 26.585400 -206.798645
v 305.478394 27.679735 -225.137421
v 301.477692 27.679733 -193.892792
v 336.306641 24.055326 -197.030914
v 332.840210 25.385620 -217.223053
v 320.785431 25.385620 -188.077515
v 351.937073 21.136549 -181.232605
v 353.563080 22.570856 -202.865494
v 335.539124 22.570854 -176.884476
v 363.639313 18.778492 -161.016602
v 371.104706 19.928091 -180.125076
v 346.136658 19.928091 -162.543549
v 366.049072 16.448214 -141.638611
v 381.369781 17.535475 -153.501312
v 350.715698 17.535475 -148.674683
v 360.449677 15.336204 -123.688461
v 379.139526 15.765882 -128.760132
v 349.082367 15.765882 -136.365204
v 349.219971 14.277331 -106.181717
v 369.508850 14.913166 -107.716316
v 341.100952 14.913166 -122.036743
v 334.045715 11.477634 -88.564278
v 356.593414 13.211088 -90.204918
v 328.369690 13.211086 -104.961815
v 311.011627 6.326659 -68.752167
v 335.909973 8.995863 -69.558838
v 310.270874 8.995860 -87.920860
v 288.631104 2.303492 -50.733723
v 310.554382 4.065417 -47.985229
v 288.301880 4.065415 -70.727768
v 269.037903 0.564216 -35.688137
v 289.304504 1.059391 -31.122040
v 267.806610 1.059390 -54.653275
v 250.382263 2.583920 -21.841970
v 270.637238 1.055505 -17.174595
v 249.007492 1.055504 -40.585411
v 228.054626 8.575711 -4.436045
v 251.059433 4.948298 -2.288781
v 219.859985 8.204461 -17.421152
v -193.699905 0.000009 286.253052
v -177.882401 0.000010 272.360992
v -209.757919 0.000010 272.360992
v -193.054642 0.000006 313.247040
v -177.532761 0.000007 299.847778
v -209.406708 0.000007 299.893768
v -190.301239 0.000004 338.439392
v -176.345078 0.000005 325.661713
v -208.098984 0.000005 327.043945
v -180.443130 -0.124603 358.246460
v -171.777847 -0.015573 344.327026
v -201.338593 -0.015572 353.431000
v -160.597229 -0.747628 373.276917
v -160.696182 -0.389389 356.275635
v -182.587097 -0.389388 377.561707
v -135.558426 -1.806768 375.622192
v -143.325500 -1.160382 361.206207
v -152.871887 -1.160381 390.461700
v -114.503693 -4.236560 369.557892
v -126.534096 -2.858121 358.623291
v -122.024750 -2.858120 388.989075
v -99.846016 -7.227073 352.013733
v -115.405472 -5.778544 349.757416
v -97.129730 -5.778543 374.233673
v -92.450729 -8.909237 329.728607
v -109.106606 -8.325152 333.384888
v -81.706909 -8.325151 348.413208
v -87.501083 -8.490425 309.882568
v -105.217133 -8.903612 314.139679
v -75.201157 -8.903610 324.555389
v -76.959717 -7.232261 294.586639
v -96.403534 -7.891845 293.294556
v -70.034241 -7.891845 309.541443
v -59.385937 -6.263111 286.015747
v -78.344414 -6.628273 277.399231
v -59.095016 -6.628273 302.196045
v -41.254356 -6.380794 277.110077
v -59.821167 -6.253161 269.777222
v -40.159744 -6.253160 294.217773
v -27.175373 -6.439632 263.175171
v -45.626457 -6.419300 260.436829
v -21.725960 -6.419298 281.401825
v -17.520100 -6.604040 242.771454
v -35.100136 -6.536763 245.736526
v -8.206774 -6.536763 261.750732
v -14.180648 -6.043316 217.899506
v -30.480370 -6.487222 227.623108
v 0.202689 -6.487222 233.534790
v -14.917906 -4.492676 193.715256
v -30.096144 -5.242037 205.481155
v 1.711139 -5.242037 205.480637
v -18.027512 -4.077325 172.486755
v -31.849010 -4.170780 184.914078
v -0.536878 -4.170780 180.680267
v -22.162319 -3.682742 152.859436
v -35.690758 -3.929357 166.481583
v -4.902568 -3.929357 158.530472
v -22.344511 -2.616677 134.576035
v -38.367908 -3.310657 144.408112
v -7.280025 -3.310657 142.762634
v -18.254288 -0.498394 117.831276
v -36.086281 -1.510809 121.638489
v -5.713378 -1.510809 129.999924
v -8.064301 0.000026 105.355804
v -27.365217 -0.062278 102.851151
v -0.787962 -0.062277 119.320343
v 10.086040 0.000026 96.854660
v -8.170123 0.000025 87.684959
v 8.185979 0.000027 113.174026
v 34.015919 0.000026 94.787231
v 21.215412 0.000026 79.815598
v 22.439745 0.000027 110.441742
v 56.290459 -0.051892 95.573280
v 48.782322 -0.006464 79.607880
v 42.223999 -0.006463 110.677025
v 76.288376 -0.415323 94.125259
v 67.230446 -0.175200 79.818649
v 65.944412 -0.175199 111.102448
v 94.908226 -1.246021 85.719086
v 81.335953 -0.791734 75.751663
v 89.517708 -0.791732 106.172340
v 117.086624 -1.869043 70.359070
v 99.340599 -1.674350 63.827885
v 111.794724 -1.674348 93.143105
v 140.964050 -1.152768 54.617233
v 122.556587 -1.662692 47.823475
v 135.332047 -1.662691 77.003632
v 164.188141 0.253608 39.091072
v 144.872726 -0.486644 33.173458
v 161.002869 -0.486643 60.363480
v 184.479813 1.865207 23.977497
v 164.080704 0.982623 19.491518
v 192.995789 1.790519 36.693562
v 174.183014 1.790517 12.626581
v 183.565552 0.982624 44.691410
v 180.561981 1.536574 26.980816
v 238.789490 8.204463 6.546241
v 230.327133 4.948297 -26.463406
v 233.010895 7.127012 -8.343767
v -193.274963 0.000011 245.462982
v -192.020676 0.000011 219.630875
v -190.748093 0.000014 193.393539
v -189.157196 0.000016 166.787979
v -187.761200 0.097671 140.339844
v -186.781204 2.374735 114.086777
v -186.621628 5.407867 95.004578
v -189.630203 7.995369 81.671570
v -197.327652 12.167386 61.047752
v -201.871811 16.660727 39.294361
v -199.566223 20.202089 22.537853
v -190.897247 22.675604 4.838330
v -178.332016 25.185272 -14.412919
v -168.854156 27.367321 -28.845810
v -159.192535 28.378996 -38.153339
v -143.099457 28.647858 -54.091061
v -122.013496 28.696993 -79.122620
v -98.407288 28.835543 -107.078247
v -68.618355 28.841774 -128.400177
v -33.209084 28.841774 -141.553421
v 5.448954 28.841774 -153.568848
v 39.587952 28.841774 -161.931549
v 66.443993 28.841774 -167.310120
v 92.942421 28.841776 -173.422180
v 119.433479 28.841776 -179.713242
v 145.953079 28.841776 -185.311768
v 172.449188 28.841776 -190.535172
v 198.121445 28.841776 -195.701248
v 224.485214 28.841776 -200.732147
v 251.676407 28.841776 -205.921875
v 277.735626 28.795462 -210.020462
v 303.478058 27.679735 -209.515106
v 326.812805 25.385622 -202.650284
v 344.551056 22.570856 -189.874985
v 358.620667 19.928087 -171.334290
v 366.042694 17.535473 -151.087982
v 364.110901 15.765883 -132.562668
v 355.304871 14.913166 -114.876534
v 342.481537 13.211087 -97.583366
v 323.090424 8.995860 -78.739845
v 299.428131 4.065416 -59.356499
v 278.555542 1.059390 -42.887653
v 259.822327 1.055504 -28.880005
v 229.299576 8.211811 -5.417631
v -193.820145 0.000010 272.360992
v -193.469711 0.000007 299.870758
v -192.222046 0.000005 326.352814
v -186.558197 -0.015573 348.879028
v -171.641632 -0.389388 366.918640
v -148.098694 -1.160381 375.833954
v -124.279411 -2.858121 373.806122
v -106.267593 -5.778543 361.995514
v -95.406754 -8.325152 340.898987
v -90.209145 -8.903611 319.347565
v -83.218895 -7.891844 301.418030
v -68.719719 -6.628273 289.797607
v -49.990452 -6.253160 281.997498
v -33.676205 -6.419298 270.919312
v -21.653452 -6.536763 253.743622
v -15.138840 -6.487223 230.578934
v -14.192501 -5.242037 205.480865
v -16.192944 -4.170780 182.797165
v -20.296659 -3.929356 162.506027
v -22.823967 -3.310658 143.585388
v -20.899832 -1.510809 125.819199
v -14.076589 -0.062277 111.085747
v 0.007928 0.000026 100.429504
v 21.827578 0.000026 95.128662
v 45.503155 -0.006463 95.142448
v 66.587425 -0.175199 95.460548
v 85.426834 -0.791733 90.962006
v 105.567665 -1.674349 78.485497
v 128.944305 -1.662692 62.413551
v 152.937805 -0.486644 46.768463
v 183.604889 1.791817 24.648197
v 173.823120 0.982624 32.091461
v 240.693268 4.948297 -14.376092
vn -0.0000 1.0000 -0.0000
vn -0.0000 1.0000 0.0074
vn -0.0000 0.9987 0.0517
vn 0.0001 0.9926 0.1212
vn 0.0001 0.9926 0.1210
vn 0.0008 0.9877 0.1565
vn 0.0008 0.9874 0.1582
vn 0.0032 0.9871 0.1601
vn 0.0031 0.9882 0.1531
vn 0.0092 0.9870 0.1602
vn 0.0105 0.9833 0.1817
vn 0.0275 0.9753 0.2192
vn 0.0231 0.9826 0.1841
vn 0.0361 0.9818 0.1866
vn 0.0392 0.9786 0.2021
vn 0.0349 0.9841 0.1739
vn 0.0365 0.9826 0.1822
vn 0.0274 0.9804 0.1953
vn 0.0248 0.9840 0.1767
vn 0.0127 0.9795 0.2009
vn 0.0142 0.9744 0.2242
vn -0.0027 0.9720 0.2351
vn -0.0024 0.9788 0.2046
vn -0.0182 0.9847 0.1733
vn -0.0221 0.9773 0.2109
vn -0.0361 0.9863 0.1612
vn -0.0292 0.9910 0.1303
vn -0.0328 0.9952 0.0927
vn -0.0391 0.9931 0.1103
vn -0.0440 0.9945 0.0951
vn -0.0400 0.9954 0.0865
vn -0.0537 0.9929 0.1064
vn -0.0572 0.9917 0.1152
vn -0.0584 0.9913 0.1177
vn -0.0530 0.9931 0.1044
vn -0.0568 0.9921 0.1118
vn -0.0510 0.9947 0.0898
vn -0.0437 0.9961 0.0770
vn -0.0314 0.9983 0.0484
vn -0.0359 0.9978 0.0553
vn -0.0151 0.9997 0.0210
vn -0.0141 0.9997 0.0197
vn -0.0016 1.0000 0.0021
vn -0.0017 1.0000 0.0022
vn 0.0007 1.0000 -0.0009
vn -0.0024 1.0000 0.0031
vn -0.0033 1.0000 0.0042
vn -0.0014 1.0000 0.0018
vn -0.0015 1.0000 0.0018
vn -0.0002 1.0000 0.0003
vn -0.0002 1.0000 0.0002
vn 0.0036 1.0000 -0.0001
vn 0.0261 0.9997 0.0001
vn 0.0247 0.9997 0.0001
vn 0.0570 0.9984 0.0044
vn 0.0645 0.9979 0.0049
vn 0.0920 0.9956 0.0181
vn 0.0780 0.9968 0.0153
vn 0.0888 0.9956 0.0301
vn 0.1058 0.9937 0.0358
vn 0.1177 0.9914 0.0568
vn 0.1001 0.9938 0.0483
vn 0.1081 0.9919 0.0672
vn 0.1248 0.9891 0.0776
vn 0.1098 0.9901 0.0876
vn 0.0911 0.9932 0.0727
vn 0.0589 0.9960 0.0669
vn 0.0779 0.9930 0.0884
vn 0.0561 0.9929 0.1048
vn 0.0405 0.9963 0.0758
vn 0.0270 0.9946 0.1007
vn 0.0373 0.9896 0.1387
vn 0.0076 0.9906 0.1364
vn 0.0055 0.9951 0.0983
vn -0.0092 0.9980 0.0622
vn -0.0129 0.9961 0.0875
vn -0.0164 0.9987 0.0486
vn -0.0127 0.9992 0.0377
vn -0.0167 0.9992 0.0360
vn -0.0185 0.9990 0.0397
vn -0.0276 0.9982 0.0542
vn -0.0272 0.9982 0.0534
vn -0.0453 0.9951 0.0873
vn -0.0457 0.9951 0.0881
vn -0.0710 0.9891 0.1291
vn -0.0672 0.9902 0.1223
vn -0.0886 0.9865 0.1375
vn -0.0985 0.9833 0.1529
vn -0.1132 0.9835 0.1413
vn -0.1017 0.9867 0.1269
vn -0.1008 0.9893 0.1055
vn -0.1082 0.9877 0.1132
vn -0.0936 0.9916 0.0889
vn -0.0905 0.9922 0.0860
vn -0.0714 0.9953 0.0656
vn -0.0719 0.9952 0.0660
vn -0.0306 0.9991 0.0281
vn -0.0308 0.9991 0.0282
vn 0.0317 0.9991 -0.0293
vn 0.0316 0.9991 -0.0292
vn 0.0962 0.9915 -0.0879
vn 0.0948 0.9917 -0.0866
vn 0.1710 0.9757 -0.1370
vn 0.1784 0.9735 -0.1429
vn 0.1784 0.9739 -0.1405
vn 0.1732 0.9754 -0.1364
vn 0.0003 1.0000 0.0016
vn 0.0003 1.0000 0.0012
vn 0.0034 1.0000 0.0078
vn 0.0047 0.9999 0.0107
vn 0.0154 0.9997 0.0204
vn 0.0113 0.9998 0.0150
vn 0.0193 0.9997 0.0154
vn 0.0261 0.9994 0.0209
vn 0.0353 0.9992 0.0163
vn 0.0263 0.9996 0.0122
vn 0.0452 0.9989 0.0092
vn 0.0603 0.9981 0.0123
vn 0.1095 0.9940 -0.0033
vn 0.0798 0.9968 -0.0024
vn 0.1065 0.9939 -0.0293
vn 0.1509 0.9877 -0.0415
vn 0.1473 0.9856 -0.0835
vn 0.1040 0.9928 -0.0589
vn 0.0782 0.9942 -0.0744
vn 0.1068 0.9891 -0.1015
vn 0.0601 0.9943 -0.0885
vn 0.0467 0.9965 -0.0687
vn 0.0200 0.9989 -0.0427
vn 0.0238 0.9984 -0.0509
vn -0.0002 1.0000 0.0005
vn -0.0157 0.9990 0.0413
vn -0.0143 0.9992 0.0376
vn -0.0253 0.9984 0.0496
vn -0.0329 0.9974 0.0645
vn -0.0518 0.9963 0.0679
vn -0.0371 0.9981 0.0486
vn -0.0422 0.9984 0.0385
vn -0.0552 0.9972 0.0503
vn -0.0317 0.9992 0.0231
vn -0.0288 0.9994 0.0210
vn -0.0009 1.0000 0.0006
vn -0.0008 1.0000 0.0006
vn 0.0089 0.9999 -0.0080
vn 0.0107 0.9999 -0.0097
vn 0.0028 1.0000 -0.0031
vn 0.0026 1.0000 -0.0028
vn 0.0012 1.0000 -0.0015
vn 0.0013 1.0000 -0.0016
vn 0.0055 1.0000 -0.0081
vn 0.0046 1.0000 -0.0067
vn 0.0023 1.0000 -0.0047
vn 0.0028 1.0000 -0.0059
vn -0.0029 0.9999 0.0102
vn -0.0023 1.0000 0.0082
vn -0.0040 0.9995 0.0321
vn -0.0047 0.9993 0.0377
vn -0.0020 0.9978 0.0669
vn -0.0018 0.9981 0.0621
vn 0.0014 0.9981 0.0616
vn 0.0015 0.9979 0.0655
vn 0.0028 0.9995 0.0311
vn 0.0025 0.9996 0.0274
vn 0.0015 1.0000 0.0082
vn 0.0017 1.0000 0.0094
vn 0.0035 0.9999 0.0144
vn 0.0033 0.9999 0.0137
vn 0.0059 0.9997 0.0256
vn 0.0054 0.9997 0.0234
vn 0.0045 0.9994 0.0354
vn 0.0057 0.9990 0.0453
vn -0.0032 0.9959 0.0902
vn -0.0023 0.9978 0.0666
vn -0.0214 0.9940 0.1076
vn -0.0276 0.9899 0.1390
vn -0.0449 0.9907 0.1287
vn -0.0350 0.9943 0.1004
vn -0.0220 0.9989 0.0425
vn -0.0298 0.9979 0.0575
vn -0.0056 1.0000 0.0074
vn -0.0039 1.0000 0.0051
vn 0.0005 1.0000 0.0001
vn 0.0006 1.0000 0.0001
vn 0.0041 1.0000 0.0008
vn 0.0043 1.0000 0.0008
vn 0.0133 0.9999 0.0014
vn 0.0109 0.9999 0.0011
vn 0.0218 0.9998 -0.0009
vn 0.0282 0.9996 -0.0011
vn 0.0437 0.9990 -0.0085
vn 0.0345 0.9994 -0.0067
vn 0.0378 0.9992 -0.0122
vn 0.0438 0.9989 -0.0142
vn 0.0324 0.9994 -0.0130
vn 0.0308 0.9994 -0.0124
vn 0.0129 0.9999 -0.0055
vn 0.0130 0.9999 -0.0056
vn -0.0135 0.9999 0.0059
vn -0.0134 0.9999 0.0058
vn -0.0320 0.9994 0.0147
vn -0.0333 0.9993 0.0153
vn -0.0432 0.9988 0.0232
vn -0.0392 0.9990 0.0211
vn -0.0433 0.9987 0.0283
vn -0.0478 0.9984 0.0312
vn -0.0523 0.9978 0.0409
vn -0.0503 0.9980 0.0374
vn -0.0478 0.9982 0.0356
vn -0.0513 0.9979 0.0399
vn -0.0519 0.9978 0.0403
vn 0.1404 0.9823 -0.1236
vn 0.1451 0.9811 -0.1278
vn 0.1708 0.9749 -0.1425
vn 0.1638 0.9770 -0.1367
vt 0.000000 0.000000
vt 0.500000 0.138889
vt 0.500000 0.500000
vt 0.000000 0.500000
vt 1.000000 0.000000
vt 1.000000 0.500000
vt 1.000000 1.000000
vt 0.500000 0.861111
vt 0.000000 1.000000
vt 0.500000 0.986111
vt 0.000000 1.000000
vt 1.000000 1.000000
vt 0.500000 1.000000
vt 0.500000 1.000000
vt 0.500000 1.000000
vt 0.500000 0.013889
vt 1.000000 0.000000
vt 0.500000 0.000000
s 0
f 1/1/1 158/2/1 389/3/1 157/4/1
f 158/2/1 2/5/1 159/6/1 389/3/1
f 389/3/1 159/6/1 4/7/1 160/8/1
f 157/4/1 389/3/1 160/8/1 3/9/1
f 3/9/1 160/8/1 390/10/1 162/11/1
f 160/8/1 4/7/1 163/12/1 390/10/1
f 390/10/1 163/12/1 6/7/1 161/13/1
f 162/11/1 390/10/1 161/13/1 5/9/1
f 5/9/1 161/13/1 391/13/1 165/11/1
f 161/13/1 6/7/1 166/12/1 391/13/1
f 391/13/1 166/12/1 8/7/1 164/13/1
f 165/11/1 391/13/1 164/13/1 7/9/1
f 7/9/1 164/13/1 392/13/1 168/11/1
f 164/13/1 8/7/1 169/12/1 392/13/1
f 392/13/1 169/12/1 10/7/1 167/13/1
f 168/11/1 392/13/1 167/13/1 9/9/1
f 9/9/2 167/13/2 393/13/2 171/11/2
f 167/13/2 10/7/2 172/12/2 393/13/2
f 393/13/3 172/12/3 12/7/3 170/13/3
f 171/11/3 393/13/3 170/13/3 11/9/3
f 11/9/4 170/13/4 394/13/4 174/11/4
f 170/13/5 12/7/5 175/12/5 394/13/5
f 394/13/6 175/12/6 14/7/6 173/13/6
f 174/11/7 394/13/7 173/13/7 13/9/7
f 13/9/8 173/13/8 395/13/8 177/11/8
f 173/13/9 14/7/9 178/12/9 395/13/9
f 395/13/10 178/12/10 16/7/10 176/13/10
f 177/11/11 395/13/11 176/13/11 15/9/11
f 15/9/12 176/13/12 396/13/12 180/11/12
f 176/13/13 16/7/13 181/12/13 396/13/13
f 396/13/14 181/12/14 18/7/14 179/13/14
f 180/11/15 396/13/15 179/13/15 17/9/15
f 17/9/16 179/13/16 397/13/16 183/11/16
f 179/13/17 18/7/17 184/12/17 397/13/17
f 397/13/18 184/12/18 20/7/18 182/13/18
f 183/11/19 397/13/19 182/13/19 19/9/19
f 19/9/20 182/13/20 398/13/20 186/11/20
f 182/13/21 20/7/21 187/12/21 398/13/21
f 398/13/22 187/12/22 22/7/22 185/13/22
f 186/11/23 398/13/23 185/13/23 21/9/23
f 21/9/24 185/13/24 399/13/24 189/11/24
f 185/13/25 22/7/25 190/12/25 399/13/25
f 399/13/26 190/12/26 24/7/26 188/13/26
f 189/11/27 399/13/27 188/13/27 23/9/27
f 23/9/28 188/13/28 400/13/28 192/11/28
f 188/13/29 24/7/29 193/12/29 400/13/29
f 400/13/30 193/12/30 26/7/30 191/13/30
f 192/11/31 400/13/31 191/13/31 25/9/31
f 25/9/32 191/13/32 401/13/32 195/11/32
f 191/13/32 26/7/32 196/12/32 401/13/32
f 401/13/33 196/12/33 28/7/33 194/13/33
f 195/11/34 401/13/34 194/13/34 27/9/34
f 27/9/35 194/13/35 402/13/35 198/11/35
f 194/13/36 28/7/36 199/12/36 402/13/36
f 402/13/37 199/12/37 30/7/37 197/13/37
f 198/11/38 402/13/38 197/13/38 29/9/38
f 29/9/39 197/13/39 403/13/39 201/11/39
f 197/13/40 30/7/40 202/12/40 403/13/40
f 403/13/41 202/12/41 32/7/41 200/13/41
f 201/11/42 403/13/42 200/13/42 31/9/42
f 31/9/43 200/13/43 404/13/43 204/11/43
f 200/13/44 32/7/44 205/12/44 404/13/44
f 404/13/45 205/12/45 34/7/45 203/13/45
f 204/11/45 404/13/45 203/13/45 33/9/45
f 33/9/46 203/13/46 405/13/46 207/11/46
f 203/13/46 34/7/46 208/12/46 405/13/46
f 405/13/47 208/12/47 36/7/47 206/13/47
f 207/11/47 405/13/47 206/13/47 35/9/47
f 35/9/48 206/13/48 406/13/48 210/11/48
f 206/13/49 36/7/49 211/12/49 406/13/49
f 406/13/50 211/12/50 38/7/50 209/13/50
f 210/11/51 406/13/51 209/13/51 37/9/51
f 37/9/1 209/13/1 407/13/1 213/11/1
f 209/13/1 38/7/1 214/12/1 407/13/1
f 407/13/1 214/12/1 40/7/1 212/13/1
f 213/11/1 407/13/1 212/13/1 39/9/1
f 39/9/1 212/13/1 408/13/1 216/11/1
f 212/13/1 40/7/1 217/12/1 408/13/1
f 408/13/1 217/12/1 42/7/1 215/13/1
f 216/11/1 408/13/1 215/13/1 41/9/1
f 41/9/1 215/13/1 409/13/1 219/11/1
f 215/13/1 42/7/1 220/12/1 409/13/1
f 409/13/1 220/12/1 44/7/1 218/13/1
f 219/11/1 409/13/1 218/13/1 43/9/1
f 43/9/1 218/13/1 410/13/1 222/11/1
f 218/13/1 44/7/1 223/12/1 410/13/1
f 410/13/1 223/12/1 46/7/1 221/13/1
f 222/11/1 410/13/1 221/13/1 45/9/1
f 45/9/1 221/13/1 411/13/1 225/11/1
f 221/13/1 46/7/1 226/12/1 411/13/1
f 411/13/1 226/12/1 48/7/1 224/13/1
f 225/11/1 411/13/1 224/13/1 47/9/1
f 47/9/1 224/13/1 412/13/1 228/11/1
f 224/13/1 48/7/1 229/12/1 412/13/1
f 412/13/1 229/12/1 50/7/1 227/13/1
f 228/11/1 412/13/1 227/13/1 49/9/1
f 49/9/1 227/13/1 413/13/1 231/11/1
f 227/13/1 50/7/1 232/12/1 413/13/1
f 413/13/1 232/12/1 52/7/1 230/13/1
f 231/11/1 413/13/1 230/13/1 51/9/1
f 51/9/1 230/13/1 414/13/1 234/11/1
f 230/13/1 52/7/1 235/12/1 414/13/1
f 414/13/1 235/12/1 54/7/1 233/13/1
f 234/11/1 414/13/1 233/13/1 53/9/1
f 53/9/1 233/13/1 415/13/1 237/11/1
f 233/13/1 54/7/1 238/12/1 415/13/1
f 415/13/1 238/12/1 56/7/1 236/13/1
f 237/11/1 415/13/1 236/13/1 55/9/1
f 55/9/1 236/13/1 416/13/1 240/11/1
f 236/13/1 56/7/1 241/12/1 416/13/1
f 416/13/1 241/12/1 58/7/1 239/13/1
f 240/11/1 416/13/1 239/13/1 57/9/1
f 57/9/1 239/13/1 417/13/1 243/11/1
f 239/13/1 58/7/1 244/12/1 417/13/1
f 417/13/1 244/12/1 60/7/1 242/13/1
f 243/11/1 417/13/1 242/13/1 59/9/1
f 59/9/1 242/13/1 418/13/1 246/11/1
f 242/13/1 60/7/1 247/12/1 418/13/1
f 418/13/1 247/12/1 62/7/1 245/13/1
f 246/11/1 418/13/1 245/13/1 61/9/1
f 61/9/52 245/13/52 419/13/52 249/11/52
f 245/13/52 62/7/52 250/12/52 419/13/52
f 419/13/53 250/12/53 64/7/53 248/13/53
f 249/11/54 419/13/54 248/13/54 63/9/54
f 63/9/55 248/13/55 420/13/55 252/11/55
f 248/13/56 64/7/56 253/12/56 420/13/56
f 420/13/57 253/12/57 66/7/57 251/13/57
f 252/11/58 420/13/58 251/13/58 65/9/58
f 65/9/59 251/13/59 421/13/59 255/11/59
f 251/13/60 66/7/60 256/12/60 421/13/60
f 421/13/61 256/12/61 68/7/61 254/13/61
f 255/11/62 421/13/62 254/13/62 67/9/62
f 67/9/63 254/13/63 422/13/63 258/11/63
f 254/13/64 68/7/64 259/12/64 422/13/64
f 422/13/65 259/12/65 70/7/65 257/13/65
f 258/11/66 422/13/66 257/13/66 69/9/66
f 69/9/67 257/13/67 423/13/67 261/11/67
f 257/13/68 70/7/68 262/12/68 423/13/68
f 423/13/69 262/12/69 72/7/69 260/13/69
f 261/11/70 423/13/70 260/13/70 71/9/70
f 71/9/71 260/13/71 424/13/71 264/11/71
f 260/13/72 72/7/72 265/12/72 424/13/72
f 424/13/73 265/12/73 74/7/73 263/13/73
f 264/11/74 424/13/74 263/13/74 73/9/74
f 73/9/75 263/13/75 425/13/75 267/11/75
f 263/13/76 74/7/76 268/12/76 425/13/76
f 425/13/77 268/12/77 76/7/77 266/13/77
f 267/11/78 425/13/78 266/13/78 75/9/78
f 75/9/79 266/13/79 426/13/79 270/11/79
f 266/13/80 76/7/80 271/12/80 426/13/80
f 426/13/81 271/12/81 78/7/81 269/13/81
f 270/11/82 426/13/82 269/13/82 77/9/82
f 77/9/83 269/13/83 427/13/83 273/11/83
f 269/13/84 78/7/84 274/12/84 427/13/84
f 427/13/85 274/12/85 80/7/85 272/13/85
f 273/11/86 427/13/86 272/13/86 79/9/86
f 79/9/87 272/13/87 428/13/87 276/11/87
f 272/13/88 80/7/88 277/12/88 428/13/88
f 428/13/89 277/12/89 82/7/89 275/13/89
f 276/11/90 428/13/90 275/13/90 81/9/90
f 81/9/91 275/13/91 429/13/91 279/11/91
f 275/13/92 82/7/92 280/12/92 429/13/92
f 429/13/93 280/12/93 84/7/93 278/13/93
f 279/11/94 429/13/94 278/13/94 83/9/94
f 83/9/95 278/13/95 430/13/95 282/11/95
f 278/13/96 84/7/96 283/12/96 430/13/96
f 430/13/97 283/12/97 86/7/97 281/13/97
f 282/11/98 430/13/98 281/13/98 85/9/98
f 85/9/99 281/13/99 431/14/99 285/11/99
f 281/13/100 86/7/100 286/12/100 431/14/100
f 431/14/101 286/12/101 88/12/101 284/15/101
f 285/11/102 431/14/102 284/15/102 87/11/102
f 155/9/103 388/14/103 432/13/103 386/11/103
f 388/14/104 156/7/104 289/12/104 432/13/104
f 432/13/105 289/12/105 90/12/105 287/15/105
f 386/11/106 432/13/106 287/15/106 89/11/106
f 2/5/1 158/2/1 433/16/1 291/17/1
f 158/2/1 1/1/1 292/1/1 433/16/1
f 433/16/1 292/1/1 91/1/1 290/18/1
f 291/17/1 433/16/1 290/18/1 92/5/1
f 92/5/1 290/18/1 434/18/1 294/17/1
f 290/18/1 91/1/1 295/1/1 434/18/1
f 434/18/1 295/1/1 93/1/1 293/18/1
f 294/17/1 434/18/1 293/18/1 94/5/1
f 94/5/1 293/18/1 435/18/1 297/17/1
f 293/18/1 93/1/1 298/1/1 435/18/1
f 435/18/1 298/1/1 95/1/1 296/18/1
f 297/17/1 435/18/1 296/18/1 96/5/1
f 96/5/107 296/18/107 436/18/107 300/17/107
f 296/18/108 95/1/108 301/1/108 436/18/108
f 436/18/109 301/1/109 97/1/109 299/18/109
f 300/17/110 436/18/110 299/18/110 98/5/110
f 98/5/111 299/18/111 437/18/111 303/17/111
f 299/18/112 97/1/112 304/1/112 437/18/112
f 437/18/113 304/1/113 99/1/113 302/18/113
f 303/17/114 437/18/114 302/18/114 100/5/114
f 100/5/115 302/18/115 438/18/115 306/17/115
f 302/18/116 99/1/116 307/1/116 438/18/116
f 438/18/117 307/1/117 101/1/117 305/18/117
f 306/17/118 438/18/118 305/18/118 102/5/118
f 102/5/119 305/18/119 439/18/119 309/17/119
f 305/18/120 101/1/120 310/1/120 439/18/120
f 439/18/121 310/1/121 103/1/121 308/18/121
f 309/17/122 439/18/122 308/18/122 104/5/122
f 104/5/123 308/18/123 440/18/123 312/17/123
f 308/18/124 103/1/124 313/1/124 440/18/124
f 440/18/125 313/1/125 105/1/125 311/18/125
f 312/17/126 440/18/126 311/18/126 106/5/126
f 106/5/127 311/18/127 441/18/127 315/17/127
f 311/18/128 105/1/128 316/1/128 441/18/128
f 441/18/129 316/1/129 107/1/129 314/18/129
f 315/17/130 441/18/130 314/18/130 108/5/130
f 108/5/131 314/18/131 442/18/131 318/17/131
f 314/18/131 107/1/131 319/1/131 442/18/131
f 442/18/132 319/1/132 109/1/132 317/18/132
f 318/17/133 442/18/133 317/18/133 110/5/133
f 110/5/134 317/18/134 443/18/134 321/17/134
f 317/18/135 109/1/135 322/1/135 443/18/135
f 443/18/136 322/1/136 111/1/136 320/18/136
f 321/17/137 443/18/137 320/18/137 112/5/137
f 112/5/138 320/18/138 444/18/138 324/17/138
f 320/18/139 111/1/139 325/1/139 444/18/139
f 444/18/140 325/1/140 113/1/140 323/18/140
f 324/17/141 444/18/141 323/18/141 114/5/141
f 114/5/142 323/18/142 445/18/142 327/17/142
f 323/18/143 113/1/143 328/1/143 445/18/143
f 445/18/144 328/1/144 115/1/144 326/18/144
f 327/17/145 445/18/145 326/18/145 116/5/145
f 116/5/146 326/18/146 446/18/146 330/17/146
f 326/18/147 115/1/147 331/1/147 446/18/147
f 446/18/148 331/1/148 117/1/148 329/18/148
f 330/17/149 446/18/149 329/18/149 118/5/149
f 118/5/150 329/18/150 447/18/150 333/17/150
f 329/18/151 117/1/151 334/1/151 447/18/151
f 447/18/152 334/1/152 119/1/152 332/18/152
f 333/17/153 447/18/153 332/18/153 120/5/153
f 120/5/154 332/18/154 448/18/154 336/17/154
f 332/18/155 119/1/155 337/1/155 448/18/155
f 448/18/156 337/1/156 121/1/156 335/18/156
f 336/17/157 448/18/157 335/18/157 122/5/157
f 122/5/158 335/18/158 449/18/158 339/17/158
f 335/18/159 121/1/159 340/1/159 449/18/159
f 449/18/160 340/1/160 123/1/160 338/18/160
f 339/17/161 449/18/161 338/18/161 124/5/161
f 124/5/162 338/18/162 450/18/162 342/17/162
f 338/18/163 123/1/163 343/1/163 450/18/163
f 450/18/164 343/1/164 125/1/164 341/18/164
f 342/17/165 450/18/165 341/18/165 126/5/165
f 126/5/166 341/18/166 451/18/166 345/17/166
f 341/18/167 125/1/167 346/1/167 451/18/167
f 451/18/168 346/1/168 127/1/168 344/18/168
f 345/17/169 451/18/169 344/18/169 128/5/169
f 128/5/170 344/18/170 452/18/170 348/17/170
f 344/18/171 127/1/171 349/1/171 452/18/171
f 452/18/172 349/1/172 129/1/172 347/18/172
f 348/17/173 452/18/173 347/18/173 130/5/173
f 130/5/174 347/18/174 453/18/174 351/17/174
f 347/18/175 129/1/175 352/1/175 453/18/175
f 453/18/176 352/1/176 131/1/176 350/18/176
f 351/17/177 453/18/177 350/18/177 132/5/177
f 132/5/178 350/18/178 454/18/178 354/17/178
f 350/18/179 131/1/179 355/1/179 454/18/179
f 454/18/180 355/1/180 133/1/180 353/18/180
f 354/17/181 454/18/181 353/18/181 134/5/181
f 134/5/1 353/18/1 455/18/1 357/17/1
f 353/18/1 133/1/1 358/1/1 455/18/1
f 455/18/1 358/1/1 135/1/1 356/18/1
f 357/17/1 455/18/1 356/18/1 136/5/1
f 136/5/1 356/18/1 456/18/1 360/17/1
f 356/18/1 135/1/1 361/1/1 456/18/1
f 456/18/1 361/1/1 137/1/1 359/18/1
f 360/17/1 456/18/1 359/18/1 138/5/1
f 138/5/182 359/18/182 457/18/182 363/17/182
f 359/18/183 137/1/183 364/1/183 457/18/183
f 457/18/184 364/1/184 139/1/184 362/18/184
f 363/17/185 457/18/185 362/18/185 140/5/185
f 140/5/186 362/18/186 458/18/186 366/17/186
f 362/18/187 139/1/187 367/1/187 458/18/187
f 458/18/188 367/1/188 141/1/188 365/18/188
f 366/17/189 458/18/189 365/18/189 142/5/189
f 142/5/190 365/18/190 459/18/190 369/17/190
f 365/18/191 141/1/191 370/1/191 459/18/191
f 459/18/192 370/1/192 143/1/192 368/18/192
f 369/17/193 459/18/193 368/18/193 144/5/193
f 144/5/194 368/18/194 460/18/194 372/17/194
f 368/18/195 143/1/195 373/1/195 460/18/195
f 460/18/196 373/1/196 145/1/196 371/18/196
f 372/17/197 460/18/197 371/18/197 146/5/197
f 146/5/198 371/18/198 461/18/198 375/17/198
f 371/18/199 145/1/199 376/1/199 461/18/199
f 461/18/200 376/1/200 147/1/200 374/18/200
f 375/17/201 461/18/201 374/18/201 148/5/201
f 148/5/202 374/18/202 462/18/202 378/17/202
f 374/18/203 147/1/203 379/1/203 462/18/203
f 462/18/204 379/1/204 149/1/204 377/18/204
f 378/17/205 462/18/205 377/18/205 150/5/205
f 153/5/206 385/18/206 463/18/206 383/17/206
f 385/18/206 154/1/206 382/1/206 463/18/206
f 463/18/206 382/1/206 151/1/206 380/18/206
f 383/17/206 463/18/206 380/18/206 152/17/206
f 150/5/207 377/18/207 464/18/207 381/17/207
f 377/18/208 149/1/208 384/1/208 464/18/208
f 464/18/209 384/1/209 154/1/209 385/18/209
f 381/17/210 464/18/210 385/18/210 153/5/210
f 87/11/211 284/15/211 465/14/211 288/9/211
f 284/15/212 88/12/212 387/7/212 465/14/212
f 465/14/213 387/7/213 156/7/213 388/14/213
f 288/9/214 465/14/214 388/14/214 155/9/214
